<svg xmlns="http://www.w3.org/2000/svg" xmlns:xlink="http://www.w3.org/1999/xlink" viewBox="0 0 20 20" version="1.1" shape-rendering="crispEdges"><path d="M3 20v-3h1v-1h4v-2h4v2h4v1h1v3H3z" fill="#cb9e6e"/><path d="M5 15v-1H4v-1H3v-3H2V7h1V4h1V3h1V2h10v1h1v1h1v3h1v3h-1v3h-1v1h-1v1H5z" fill="#d0a87c"/><path d="M5 7h3v2H5V7zm7 0h3v2h-3V7z" fill="#ffffff"/><path d="M6 8h1v1H6V8zm7 1V8h1v1h-1z" fill="#697b94"/><path d="M6 5h3v2H8V6H6V5zm5 0h3v1h-2v1h-1V5z" fill-rule="evenodd" fill="#3b3227"/><path d="M3 13h1v1h1v1h10v-1h1v-1h1v-3h-1v1h-1v1H5v-1H4v-1H3v3z" fill="#554838"/><path d="M8 13v1h4v-1h1v-1h-1v1H8z" fill="#e6b49e"/><path d="M3 7h1v1H3V7zm6 0h2v1H9V7zm7 0h1v1h-1V7z" fill-rule="evenodd" fill="#7b4153"/><path d="M4 6v3h1v1h3V9h1V6H4zm1 1v2h3V7H5zm6-1v3h1v1h3V9h1V6h-5zm1 1v2h3V7h-3z" fill-rule="evenodd" fill="#5e172d"/><path d="M5 7h3v2H5V7zm7 0h3v2h-3V7z" fill-rule="evenodd" fill="#ffffff" opacity=".2"/><path d="M7 7h1v1H7V7zm7 0h1v1h-1V7z" fill-rule="evenodd" fill="#ffffff" opacity=".2"/><path d="M3 20v-3h1v-1h4v1h4v-1h4v1h1v3H3z" fill="#74af99"/><path d="M3 20v-2h1v2H3zm3 0v-2h2v2H6zm4 0v-2h2v2h-2zm4 0v-2h2v2h-2zm2-3v1h1v-1h-1zm-2 1v-2h-2v2h2zm-6-1v1h2v-1H8zm-4-1v2h2v-2H4z" fill-rule="evenodd" fill="#559e83"/><path d="M3 3v2h1V4h1V3h10v1h1v1h1V3h-1V2H4v1H3z" fill="#554838"/></svg>