<svg xmlns="http://www.w3.org/2000/svg" xmlns:xlink="http://www.w3.org/1999/xlink" viewBox="0 0 20 20" version="1.1" shape-rendering="crispEdges"><path d="M3 20v-3h1v-1h4v-2h4v2h4v1h1v3H3z" fill="#e0b687"/><path d="M5 15v-1H4v-1H3v-3H2V7h1V4h1V3h1V2h10v1h1v1h1v3h1v3h-1v3h-1v1h-1v1H5z" fill="#e3bd93"/><path d="M5 7v1h3V7H5zm7 0h3v1h-3V7z" fill="#ffffff"/><path d="M5 9V8h1V7h1v1h1v1H5zm7 0V8h1V7h1v1h1v1h-3z" fill="#a4bbbe"/><path d="M6 8h1v1H6V8zm7 0h1v1h-1V8z" fill="#588387"/><path d="M8 4v1H7v1H5V5h2V4h1zm4 0h1v1h2v1h-2V5h-1V4z" fill-rule="evenodd" fill="#9c4630"/><path d="M8 13h4v1H8v-1z" fill="#c79c89"/><path d="M3 7v1h14V7H3z" fill="#6a6a6a"/><path d="M4 7h5v3H4V7zm1 1h3v1H5V8zm6-1h5v3h-5V7zm1 1h3v1h-3V8z" fill-rule="evenodd" fill="#323232"/><path d="M5 8h3v1H5V8zm7 0h3v1h-3V8z" fill-rule="evenodd" fill="#ffffff" opacity=".2"/><path d="M7 8v1h1V8H7zm7 0v1h1V8h-1z" fill-rule="evenodd" fill="#ffffff" opacity=".2"/><path d="M3 20v-3h1v-1h12v1h1v3H3z" fill="#969193"/><path d="M9 20v-2H8v-1h1v-1h2v1h1v1h-1v2H9z" fill="#5a5255"/><path d="M4 4h12V3h-1V2H5v1H4v1z" fill="#b55239"/></svg>