<svg xmlns="http://www.w3.org/2000/svg" xmlns:xlink="http://www.w3.org/1999/xlink" viewBox="0 0 20 20" version="1.1" shape-rendering="crispEdges"><path d="M17 20v-3h-1v-1h-4v-2H8v2H4v1H3v3h14z" fill="#f5cfa0"/><path d="M14 14v-1h1v-1h1v-1h1V9h1V7h-1V4h-1V3h-1V2H5v1H4v1H3v3H2v2h1v2h1v1h1v1h1v1h8z" fill="#f6d4a9"/><path d="M6 7h1v1h1v1H6V7zm6 0h1v1h1v1h-2V7z" fill="#ffffff"/><path d="M6 8h1v1H6V8zm6 0h1v1h-1V8z" fill="#647b90"/><path d="M8 4v1H7v1H5V5h2V4h1zm4 0h1v1h2v1h-2V5h-1V4z" fill-rule="evenodd" fill="#b09980"/><path d="M8 12v1h1v-1H8zm1-1h2v1H9v-1zm3 1v1h-1v-1h1zm-3 2h2v-1H9v1z" fill-rule="evenodd" fill="#d29985"/><path d="M9 12v1h2v-1H9z" fill="#ffffff"/><path d="M3 7v1h14V7H3z" fill="#ffc392"/><path d="M4 7v2h1v1h3V9h1V7H4zm1 1v1h3V8H5zm6-1v2h1v1h3V9h1V7h-5zm1 1v1h3V8h-3z" fill-rule="evenodd" fill="#ffb67a"/><path d="M5 8h3v1H5V8zm7 0h3v1h-3V8z" fill-rule="evenodd" fill="#ffffff" opacity=".2"/><path d="M7 8h1v1H7V8zm7 0h1v1h-1V8z" fill-rule="evenodd" fill="#ffffff" opacity=".2"/><path d="M3 20v-3h1v-1h4v1h4v-1h4v1h1v3H3z" fill="#5dcd96"/><path d="M5 20v-2h10v2H5z" fill="#00b159"/><path d="M4 12h1v1H3V4h1V3h1V2h10v1h1v1h1v9h-2v-1h1V5H4v7z" fill="#c9af93"/></svg>