<svg xmlns="http://www.w3.org/2000/svg" xmlns:xlink="http://www.w3.org/1999/xlink" viewBox="0 0 20 20" version="1.1" shape-rendering="crispEdges"><path d="M17 20v-3h-1v-1h-4v-2H8v2H4v1H3v3h14z" fill="#f5cfa0"/><path d="M14 14v-1h1v-1h1v-1h1V9h1V7h-1V4h-1V3h-1V2H5v1H4v1H3v3H2v2h1v2h1v1h1v1h1v1h8z" fill="#f6d4a9"/><path d="M5 7h3v2H5V7zm7 0h3v2h-3V7z" fill="#ffffff"/><path d="M7 8h1v1H7V8zm5 0h1v1h-1V8z" fill="#697b94"/><path d="M4 7V5h3v1H5v1H4zm12-2v2h-1V6h-2V5h3zM7 5h1v1h1v1H8V6H7V5zm6 0v1h-1v1h-1V6h1V5h1z" fill-rule="evenodd" fill="#b09e80"/><path d="M8 11v1h1v1h2v-1h1v-1H8z" fill="#dbac98"/><path d="M3 7v1h14V7H3z" fill="#424242"/><path d="M4 7v2h1v1h3V9h1V7H4zm1 1v1h3V8H5zm6-1v2h1v1h3V9h1V7h-5zm1 1v1h3V8h-3z" fill-rule="evenodd" fill="#191919"/><path d="M5 8h3v1H5V8zm7 0h3v1h-3V8z" fill-rule="evenodd" fill="#ffffff" opacity=".2"/><path d="M7 8h1v1H7V8zm7 0h1v1h-1V8z" fill-rule="evenodd" fill="#ffffff" opacity=".2"/><path d="M3 17v3h14v-3h-1v-1h-4v2H8v-2H4v1H3z" fill="#f59059"/><path d="M6 16v1h1v1h1v1h4v-1h1v-1h1v-1h-2v1h-1v1H9v-1H8v-1H6z" fill="#f37735"/><path d="M1 17h3v-1h4v-2H6v-1H5v-1H4v-1H3V9H2V7h1V5h1l-.002-1H11V3h1v1h1V3h1v1h1V3h1v2h1v2h1v2h-1v2h-1v1h-1v1h-1v1h-2v2h4v1h3V4h-1V3h-1V2h-1V1H4v1H3v1H2v1H1v13z" fill="#c9b593"/></svg>