<svg xmlns="http://www.w3.org/2000/svg" xmlns:xlink="http://www.w3.org/1999/xlink" viewBox="0 0 20 20" version="1.1" shape-rendering="crispEdges"><path d="M17 20v-3h-1v-1h-4v-2H8v2H4v1H3v3h14z" fill="#e0b687"/><path d="M14 14v-1h1v-1h1v-1h1V9h1V7h-1V4h-1V3h-1V2H5v1H4v1H3v3H2v2h1v2h1v1h1v1h1v1h8z" fill="#e3bd93"/><path d="M6 7h1v1h1v1H6V7zm6 0h1v1h1v1h-2V7z" fill="#ffffff"/><path d="M6 8h1v1H6V8zm6 0h1v1h-1V8z" fill="#588387"/><path d="M4 7V5h3v1H5v1H4zm12-2v2h-1V6h-2V5h3zM7 5h1v1h1v1H8V6H7V5zm6 0v1h-1v1h-1V6h1V5h1z" fill-rule="evenodd" fill="#3b2b23"/><path d="M11 11v1H9v1H8v-1h1v-1h2z" fill="#c70f0c"/><g fill-rule="evenodd"><path d="M4 16v1h5v-1H4zm7 0h5v1h-5v-1zm-8 2v1h14v-1H3z" fill="#ffcc5c"/><path d="M3 17h14v1H3v-1zm0 2v1h14v-1H3z" fill="#ffda89"/></g><path d="M1 17h3v-1h4v-2H6v-1H5v-1H4v-1H3V9H2V7h1V5h1l-.002-1H11V3h1v1h1V3h1v1h1V3h1v2h1v2h1v2h-1v2h-1v1h-1v1h-1v1h-2v2h4v1h3V4h-1V3h-1V2h-1V1H4v1H3v1H2v1H1v13z" fill="#533d32"/></svg>