<svg xmlns="http://www.w3.org/2000/svg" xmlns:xlink="http://www.w3.org/1999/xlink" viewBox="0 0 20 20" version="1.1" shape-rendering="crispEdges"><path d="M17 20v-3h-1v-1h-4v-2H8v2H4v1H3v3h14z" fill="#f5cfa0"/><path d="M14 14v-1h1v-1h1v-1h1V9h1V7h-1V4h-1V3h-1V2H5v1H4v1H3v3H2v2h1v2h1v1h1v1h1v1h8z" fill="#f6d4a9"/><path d="M5 8h3v1H5V8zm7 0h3v1h-3V8z" fill="#ffffff"/><path d="M6 8h1v1H6V8zm7 0h1v1h-1V8z" fill="#5b7c8b"/><path d="M6 5H4v2h1V6h1V5zm8 0h2v2h-1V6h-1V5z" fill-rule="evenodd" fill="#8c5a3b"/><path d="M8 11v1h1v1h2v-1H9v-1H8z" fill="#c98276"/><path d="M3 7v1h14V7H3z" fill="#ba7c89"/><path d="M4 7h5v3H4V7zm1 1h3v1H5V8zm6-1h5v3h-5V7zm1 1h3v1h-3V8z" fill-rule="evenodd" fill="#a04b5d"/><path d="M5 8h3v1H5V8zm7 0h3v1h-3V8z" fill-rule="evenodd" fill="#ffffff" opacity=".2"/><path d="M7 8v1h1V8H7zm7 0v1h1V8h-1z" fill-rule="evenodd" fill="#ffffff" opacity=".2"/><path d="M3 20v-3h1v-1h4v1h4v-1h4v1h1v3H3z" fill="#f7a97f"/><path d="M5 20v-2h10v2H5z" fill="#f37735"/><path d="M2 13.104V9h1v2h1v1h1v1l-3 .104zM17 9h1v4.058L15 13v-1h1v-1h1V9zM2 7h1V4h1V3h1V2h10v1h1v1h1v3h1V3h-1V2h-1V1H4v1H3v1H2v4z" fill-rule="evenodd" fill="#a56b46"/></svg>