<svg xmlns="http://www.w3.org/2000/svg" xmlns:xlink="http://www.w3.org/1999/xlink" viewBox="0 0 20 20" version="1.1" shape-rendering="crispEdges"><path d="M17 20v-3h-1v-1h-4v-2H8v2H4v1H3v3h14z" fill="#e0b687"/><path d="M14 14v-1h1v-1h1v-1h1V9h1V7h-1V4h-1V3h-1V2H5v1H4v1H3v3H2v2h1v2h1v1h1v1h1v1h8z" fill="#e3bd93"/><path d="M5 7h3v3H5V7zm7 0h3v3h-3V7z" fill="#ffffff"/><path d="M5 8h1v1H5V8zm7 0h1v1h-1V8z" fill="#d1ddde"/><path d="M6 8h1v1H6V8zm7 0h1v1h-1V8z" fill="#588387"/><path d="M6 5h3v2H8V6H6V5zm5 0h3v1h-2v1h-1V5z" fill-rule="evenodd" fill="#9c4630"/><path d="M9 12h2v1H9v-1z" fill="#fa6675"/><path d="M6 16v1h1v1h1v1h1v1h2v-1h1v-1h1v-1h1v-1h-1v1h-1v1h-1v1H9v-1H8v-1H7v-1H6z" fill="#5dcce8"/><path d="M15 16v1h-1v1h-1v1h-1v1h-1v-1h1v-1h1v-1h1v-1h1zM5 16v1h1v1h1v1h1v1h1v-1H8v-1H7v-1H6v-1H5z" fill-rule="evenodd" fill="#2ebde1"/><path d="M3 20h1v-3h1v1h1v1h1v1h1v-1H7v-1H6v-1H5v-1H4v1H3v3zm14 0v-3h-1v-1h-1v1h-1v1h-1v1h-1v1h1v-1h1v-1h1v-1h1v3h1z" fill-rule="evenodd" fill="#17b5de"/><path d="M4 20v-3h1v1h1v1h1v1H4zm12 0v-3h-1v1h-1v1h-1v1h3z" fill-rule="evenodd" fill="#00aedb"/><path d="M2 9v3h1v1H2v2H1v1h1v-1h1v-1h1v-1h1v-1H4v-1H3V9H2zm0-2h1V6h1V5h2V4h9v1h1v1h1v1h1V3h-1V2h-1V1H4v1H3v1H2v4z" fill-rule="evenodd" fill="#b55239"/></svg>