<svg xmlns="http://www.w3.org/2000/svg" xmlns:xlink="http://www.w3.org/1999/xlink" viewBox="0 0 20 20" version="1.1" shape-rendering="crispEdges"><path d="M17 20v-3h-1v-1h-4v-2H8v2H4v1H3v3h14z" fill="#ffdbac"/><path d="M14 14v-1h1v-1h1v-1h1V9h1V7h-1V4h-1V3h-1V2H5v1H4v1H3v3H2v2h1v2h1v1h1v1h1v1h8z" fill="#ffdfb4"/><path d="M5 8h2v1H5V8zm7 0h2v1h-2V8z" fill="#ffffff"/><path d="M7 8h1v1H7V8zm7 0h1v1h-1V8z" fill="#647b90"/><path d="M8 4v1H7v1H5V5h2V4h1zm4 0h1v1h2v1h-2V5h-1V4z" fill-rule="evenodd" fill="#7d6450"/><path d="M8 12v1h1v-1H8zm1-1h2v1H9v-1zm3 1v1h-1v-1h1zm-3 2h2v-1H9v1z" fill-rule="evenodd" fill="#dbac98"/><path d="M9 12v1h2v-1H9z" fill="#ffffff"/><path d="M3 7h1v1H3V7zm6 0h2v1H9V7zm7 0h1v1h-1V7z" fill-rule="evenodd" fill="#6b6b6b"/><path d="M4 6v3h1v1h3V9h1V6H4zm1 1v2h3V7H5zm6-1v3h1v1h3V9h1V6h-5zm1 1v2h3V7h-3z" fill-rule="evenodd" fill="#4b4b4b"/><path d="M5 7h3v2H5V7zm7 0h3v2h-3V7z" fill-rule="evenodd" fill="#ffffff" opacity=".2"/><path d="M7 7h1v1H7V7zm7 0h1v1h-1V7z" fill-rule="evenodd" fill="#ffffff" opacity=".2"/><path d="M6 16v3h8v-3h-2v1h-1v1H9v-1H8v-1H6z" fill="#d37475"/><path d="M3 17v3h14v-3h-4v1h-1v1H8v-1H7v-1H3z" fill="#ae0001"/><path d="M13 20v-1h2v1h-2zm1-4v1h2v-1h-2zm-8 0H4v1h2v-1z" fill-rule="evenodd" fill="#bd2e2f"/><path d="M2 9v3h1v1H2v2H1v1h1v-1h1v-1h1v-1h1v-1H4v-1H3V9H2zm16 0v3h-1v1h1v2h1v1h-1v-1h-1v-1h-1v-1h-1v-1h1v-1h1V9h1zm-1-2h1V3h-1V2h-1V1H4v1H3v1H2v4h1V6h1V5h2V4h9v1h1v1h1v1z" fill-rule="evenodd" fill="#977961"/></svg>