<svg xmlns="http://www.w3.org/2000/svg" xmlns:xlink="http://www.w3.org/1999/xlink" viewBox="0 0 20 20" version="1.1" shape-rendering="crispEdges"><path d="M17 20v-3h-1v-1h-4v-2H8v2H4v1H3v3h14z" fill="#cb9e6e"/><path d="M14 14v-1h1v-1h1v-1h1V9h1V7h-1V4h-1V3h-1V2H5v1H4v1H3v3H2v2h1v2h1v1h1v1h1v1h8z" fill="#d0a87c"/><path d="M5 7h3v3H5V7zm7 0h3v3h-3V7z" fill="#ffffff"/><path d="M5 8h1v1H5V8zm7 0h1v1h-1V8z" fill="#d1ddde"/><path d="M6 8h1v1H6V8zm7 0h1v1h-1V8z" fill="#588387"/><path d="M4 7V5h3v1H5v1H4zm12-2v2h-1V6h-2V5h3zM7 5h1v1h1v1H8V6H7V5zm6 0v1h-1v1h-1V6h1V5h1z" fill-rule="evenodd" fill="#211b14"/><path d="M9 11v2h2v-2H9z" fill="#e6b49e"/><g fill-rule="evenodd"><path d="M4 16v1h5v-1H4zm7 0h5v1h-5v-1zm-8 2v1h14v-1H3z" fill="#88d8b0"/><path d="M3 17h14v1H3v-1zm0 2v1h14v-1H3z" fill="#a9e3c6"/></g><path d="M2 9v6h2v-4H3V9H2zm0-2h2V4h12v3h2V3h-1V2H3v1H2v4zm15 2h1v6h-2v-4h1V9z" fill-rule="evenodd" fill="#3b3024"/></svg>