<svg xmlns="http://www.w3.org/2000/svg" xmlns:xlink="http://www.w3.org/1999/xlink" viewBox="0 0 20 20" version="1.1" shape-rendering="crispEdges"><path d="M17 20v-3h-1v-1h-4v-2H8v2H4v1H3v3h14z" fill="#eac393"/><path d="M14 14v-1h1v-1h1v-1h1V9h1V7h-1V4h-1V3h-1V2H5v1H4v1H3v3H2v2h1v2h1v1h1v1h1v1h8z" fill="#ecc99e"/><path d="M5 7h3v3H5V7zm7 0h3v3h-3V7z" fill="#ffffff"/><path d="M6 7v2h2V8H7V7H6zm7 0v2h2V8h-1V7h-1z" fill="#a6b8c0"/><path d="M6 8h1v1H6V8zm7 0h1v1h-1V8z" fill="#5b7c8b"/><path d="M7 7v1h1V7H7zm7 0h1v1h-1V7z" fill="#d2dbdf"/><path d="M6 5H4v2h1V6h1V5zm8 0h2v2h-1V6h-1V5z" fill-rule="evenodd" fill="#a69579"/><path d="M10 11v1H9v1h2v-2h-1z" fill="#d15662"/><path d="M3 7v1h14V7H3z" fill="#ba7c89"/><path d="M4 7h5v3H4V7zm1 1h3v1H5V8zm6-1h5v3h-5V7zm1 1h3v1h-3V8z" fill-rule="evenodd" fill="#a04b5d"/><path d="M5 8h3v1H5V8zm7 0h3v1h-3V8z" fill-rule="evenodd" fill="#ffffff" opacity=".2"/><path d="M7 8v1h1V8H7zm7 0v1h1V8h-1z" fill-rule="evenodd" fill="#ffffff" opacity=".2"/><path d="M4 16v4h4v-1H7v-1H6v-2H4zM16 20v-4h-2v2h-1v1h-1v1h4z" fill="#00b159"/><path d="M2 17h2v-1h4v-2H6v-1H5v-1H4V4h1V3h1v1h1V3h1v1h1V3h6v1h1v8h-1v1h-1v1h-2v2h4v1h2V3h-1V2h-1V1H4v1H3v1H2v14z" fill="#bfab8c"/></svg>