<svg xmlns="http://www.w3.org/2000/svg" xmlns:xlink="http://www.w3.org/1999/xlink" viewBox="0 0 20 20" version="1.1" shape-rendering="crispEdges"><path d="M17 20v-3h-1v-1h-4v-2H8v2H4v1H3v3h14z" fill="#a26d3d"/><path d="M14 14v-1h1v-1h1v-1h1V9h1V7h-1V4h-1V3h-1V2H5v1H4v1H3v3H2v2h1v2h1v1h1v1h1v1h8z" fill="#ab7b50"/><path d="M5 8h3v1H5V8zm7 0h3v1h-3V8z" fill="#ffffff"/><path d="M6 8h1v1H6V8zm7 0h1v1h-1V8z" fill="#5b7c8b"/><path d="M7 5v1H5v1H4V6h1V5h2zm7 0v1h-2v1h-1V6h1V5h2z" fill-rule="evenodd" fill="#362e2b"/><path d="M8 12v1h1v-1H8zm1-1h2v1H9v-1zm3 1v1h-1v-1h1zm-3 2h2v-1H9v1z" fill-rule="evenodd" fill="#e35d6a"/><path d="M9 12v1h2v-1H9z" fill="#ffffff"/><path d="M5 16h1v2h1v1h1v1H5v-4zm9 0h1v4h-3v-1h1v-1h1v-2z" fill-rule="evenodd" fill="#88d8b0"/><path d="M1 15h5v-2H5v-1H4v-1H3V6h2V5h2V4h1V3h6v1h1v1h1v1h1v5h-1v1h-1v1h-1v2h5V4h-1V3h-1V2h-1V1H4v1H3v1H2v1H1v11z" fill="#4e433f"/></svg>